{"asset": {"generator": "Khronos glTF Blender I/O v5.1.20", "version": "2.0"}, "extensionsUsed": ["KHR_materials_specular"], "scene": 0, "scenes": [{"name": "Scene", "nodes": [24, 25, 26, 27, 28, 29, 30, 31, 32, 33, 34]}], "nodes": [{"name": "Head", "rotation": [-0.07259077578783035, 5.673402725392407e-08, -1.2078015032557232e-08, 0.9973618388175964], "scale": [1, 1, 0.9999999403953552], "translation": [2.50199133058817e-15, 0.04123125597834587, -3.725290298461914e-08]}, {"children": [0], "name": "Neck", "rotation": [0.31924718618392944, -2.149160671649497e-08, 4.219779725644912e-08, 0.9476715326309204], "translation": [2.8883884487743844e-14, 0.07615727186203003, -2.3096799850463867e-07]}, {"name": "Forearm.L", "rotation": [0.05195973441004753, 0.15388242900371552, -0.09679193049669266, 0.9819632172584534], "scale": [1, 0.9999998807907104, 0.9999999403953552], "translation": [1.2200325727462769e-07, 0.2695211172103882, -3.725290298461914e-09]}, {"children": [2], "name": "UpperArm.L", "rotation": [-0.9501640200614929, -0.1676480621099472, -0.25424453616142273, 0.0666499212384224], "scale": [1.0000009536743164, 1.0000001192092896, 1], "translation": [0.11000005900859833, 0.0410984605550766, -0.0400485061109066]}, {"name": "Forearm.R", "rotation": [0.05195961147546768, -0.15388235449790955, 0.09679237753152847, 0.9819631576538086], "scale": [1.0000001192092896, 1.0000001192092896, 1], "translation": [4.190951585769653e-08, 0.269521564245224, 3.3527612686157227e-08]}, {"children": [4], "name": "UpperArm.R", "rotation": [-0.950164258480072, 0.167647585272789, 0.25424402952194214, 0.06664988398551941], "scale": [0.9999984502792358, 0.9999997019767761, 0.9999999403953552], "translation": [-0.11000007390975952, 0.041098617017269135, -0.0400485135614872]}, {"children": [1, 3, 5], "name": "Chest", "rotation": [-0.1520194411277771, 3.704376183577551e-08, -1.7843753141733032e-08, 0.9883775115013123], "scale": [1, 0.9999999403953552, 0.9999999403953552], "translation": [-2.9422536455825377e-15, 0.4019947052001953, 5.587935447692871e-08]}, {"children": [6], "name": "Spine", "rotation": [-0.053014613687992096, -9.905274822585852e-08, -9.494436348234103e-09, 0.9985937476158142], "scale": [1, 0.9999999403953552, 1], "translation": [1.1654815906315431e-14, 0.15600359439849854, -3.67872416973114e-08]}, {"name": "Shin.L", "rotation": [-0.021436629816889763, -0.030393019318580627, 0.029896456748247147, 0.9988608360290527], "scale": [1.0000001192092896, 1, 1], "translation": [2.60770320892334e-08, 0.44238048791885376, -4.6566128730773926e-09]}, {"children": [8], "name": "Thigh.L", "rotation": [-0.9986339807510376, -0.03572339564561844, -0.03550144284963608, 0.013914896175265312], "scale": [1.0000077486038208, 0.9999998807907104, 1.0000008344650269], "translation": [0.11399997770786285, -8.731148426477375e-08, 4.057183744521353e-08]}, {"name": "Shin.R", "rotation": [-0.021436745300889015, 0.030393017455935478, -0.029896488413214684, 0.9988608360290527], "scale": [1, 0.9999999403953552, 0.9999999403953552], "translation": [-8.055940270423889e-08, 0.44238054752349854, 1.862645149230957e-09]}, {"children": [10], "name": "Thigh.R", "rotation": [-0.9986340403556824, 0.03572341799736023, 0.03550116345286369, 0.013914923183619976], "scale": [1.0000077486038208, 0.9999997615814209, 1.0000009536743164], "translation": [-0.11399996280670166, -1.4695979189127684e-07, -2.986162428442185e-08]}, {"children": [7, 9, 11], "name": "Pelvis", "rotation": [0.0032051054295152426, 1.3914086594013497e-07, 4.4595169224059816e-10, 0.9999948740005493], "translation": [0, 0.9940000176429749, -0.020999999716877937]}, {"name": "neutral_bone", "rotation": [-0.7071067690849304, 0, 0, 0.7071067690849304]}, {"name": "neutral_bone.001", "rotation": [-0.7071067690849304, 0, 0, 0.7071067690849304]}, {"name": "neutral_bone", "rotation": [-0.7071067690849304, 0, 0, 0.7071067690849304]}, {"mesh": 0, "name": "Object_10", "skin": 0}, {"mesh": 1, "name": "Object_12", "skin": 0}, {"mesh": 2, "name": "Object_14", "skin": 0}, {"mesh": 3, "name": "Object_14.001", "skin": 0}, {"mesh": 4, "name": "Object_16", "skin": 0}, {"mesh": 5, "name": "Object_4", "skin": 0}, {"mesh": 6, "name": "Object_6", "skin": 0}, {"mesh": 7, "name": "Object_8", "skin": 0}, {"children": [16, 17, 18, 19, 20, 21, 22, 23, 12, 13, 14, 15], "name": "FairyPunkArmature"}, {"name": "Sketchfab_model"}, {"name": "root"}, {"name": "GLTF_SceneRootNode"}, {"name": "BilloXD Hairs_0"}, {"name": "BilloXD Upper_1"}, {"name": "BilloXD Lower_2"}, {"name": "BilloXD Hair Band_3"}, {"name": "BilloXD Face_4"}, {"name": "BilloXD Legs_5"}, {"name": "BilloXD Chest_6"}], "materials": [{"doubleSided": true, "name": "Hair_Band", "pbrMetallicRoughness": {"baseColorTexture": {"index": 0}, "metallicRoughnessTexture": {"index": 1}}}, {"doubleSided": true, "name": "Face", "normalTexture": {"index": 2, "scale": 0.20000000298023224}, "pbrMetallicRoughness": {"baseColorTexture": {"index": 3}, "metallicFactor": 0.09545449912548065, "metallicRoughnessTexture": {"index": 4}}}, {"doubleSided": true, "name": "Legs", "pbrMetallicRoughness": {"baseColorTexture": {"index": 5}, "metallicFactor": 0, "metallicRoughnessTexture": {"index": 6}}}, {"doubleSided": true, "extensions": {"KHR_materials_specular": {"specularTexture": {"index": 7}}}, "name": "Chest", "normalTexture": {"index": 8, "scale": 0.20000000298023224}, "pbrMetallicRoughness": {"baseColorTexture": {"index": 9}, "metallicFactor": 0, "metallicRoughnessTexture": {"index": 10}}}, {"alphaMode": "BLEND", "doubleSided": true, "name": "Hairs", "normalTexture": {"index": 11}, "pbrMetallicRoughness": {"baseColorTexture": {"index": 12}, "metallicFactor": 0.04090910032391548, "roughnessFactor": 0.20733200013637543}}, {"doubleSided": true, "name": "Shirt", "normalTexture": {"index": 13, "scale": 0.30000001192092896}, "pbrMetallicRoughness": {"baseColorTexture": {"index": 14}, "metallicRoughnessTexture": {"index": 15}}}, {"doubleSided": true, "name": "Lower", "pbrMetallicRoughness": {"baseColorTexture": {"index": 16}, "metallicRoughnessTexture": {"index": 17}}}], "meshes": [{"name": "Object_3", "primitives": [{"attributes": {"POSITION": 0, "NORMAL": 1, "TEXCOORD_0": 2, "TEXCOORD_1": 3, "TEXCOORD_2": 4, "JOINTS_0": 5, "WEIGHTS_0": 6}, "indices": 7, "material": 0}]}, {"name": "Object_4", "primitives": [{"attributes": {"POSITION": 9, "NORMAL": 10, "TEXCOORD_0": 11, "TEXCOORD_1": 12, "TEXCOORD_2": 13, "TEXCOORD_3": 14, "JOINTS_0": 15, "WEIGHTS_0": 16}, "indices": 17, "material": 1}]}, {"name": "Object_5", "primitives": [{"attributes": {"POSITION": 18, "NORMAL": 19, "TEXCOORD_0": 20, "TEXCOORD_1": 21, "TEXCOORD_2": 22, "JOINTS_0": 23, "WEIGHTS_0": 24}, "indices": 25, "material": 2}]}, {"name": "Object_5.001", "primitives": [{"attributes": {"POSITION": 26, "NORMAL": 27, "TEXCOORD_0": 28, "TEXCOORD_1": 29, "TEXCOORD_2": 30, "JOINTS_0": 31, "WEIGHTS_0": 32}, "indices": 33, "material": 2}]}, {"name": "Object_6", "primitives": [{"attributes": {"POSITION": 34, "NORMAL": 35, "TEXCOORD_0": 36, "TEXCOORD_1": 37, "TEXCOORD_2": 38, "TEXCOORD_3": 39, "JOINTS_0": 40, "WEIGHTS_0": 41}, "indices": 42, "material": 3}]}, {"name": "Object_0", "primitives": [{"attributes": {"POSITION": 43, "NORMAL": 44, "TEXCOORD_0": 45, "TEXCOORD_1": 46, "JOINTS_0": 47, "WEIGHTS_0": 48}, "indices": 49, "material": 4}]}, {"name": "Object_1", "primitives": [{"attributes": {"POSITION": 50, "NORMAL": 51, "TEXCOORD_0": 52, "TEXCOORD_1": 53, "TEXCOORD_2": 54, "TEXCOORD_3": 55, "JOINTS_0": 56, "WEIGHTS_0": 57}, "indices": 58, "material": 5}]}, {"name": "Object_2", "primitives": [{"attributes": {"POSITION": 59, "NORMAL": 60, "TEXCOORD_0": 61, "TEXCOORD_1": 62, "TEXCOORD_2": 63, "JOINTS_0": 64, "WEIGHTS_0": 65}, "indices": 66, "material": 6}]}], "textures": [{"sampler": 0, "source": 0}, {"sampler": 0, "source": 0}, {"sampler": 0, "source": 1}, {"sampler": 0, "source": 1}, {"sampler": 0, "source": 1}, {"sampler": 0, "source": 2}, {"sampler": 0, "source": 2}, {"sampler": 0, "source": 3}, {"sampler": 0, "source": 3}, {"sampler": 0, "source": 3}, {"sampler": 0, "source": 3}, {"sampler": 0, "source": 4}, {"sampler": 0, "source": 5}, {"sampler": 0, "source": 6}, {"sampler": 0, "source": 6}, {"sampler": 0, "source": 6}, {"sampler": 0, "source": 7}, {"sampler": 0, "source": 7}], "images": [{"mimeType": "image/jpeg", "name": "img7", "uri": "textures/img7.jpg"}, {"mimeType": "image/jpeg", "name": "img9", "uri": "textures/img9.jpg"}, {"mimeType": "image/jpeg", "name": "img12", "uri": "textures/img12.jpg"}, {"mimeType": "image/jpeg", "name": "img14", "uri": "textures/img14.jpg"}, {"mimeType": "image/jpeg", "name": "img0", "uri": "textures/img0.jpg"}, {"mimeType": "image/png", "name": "img0", "uri": "textures/img0.png"}, {"mimeType": "image/jpeg", "name": "img2", "uri": "textures/img2.jpg"}, {"mimeType": "image/jpeg", "name": "img5", "uri": "textures/img5.jpg"}], "skins": [{"inverseBindMatrices": 8, "joints": [12, 7, 6, 1, 0, 3, 2, 5, 4, 9, 8, 11, 10, 13, 14, 15], "name": "FairyPunkArmature"}], "accessors": [{"bufferView": 0, "componentType": 5126, "count": 78, "max": [0.02324487641453743, 1.8776732683181763, -0.003575636073946953], "min": [-0.027083847671747208, 1.8086055517196655, -0.06473652273416519], "type": "VEC3"}, {"bufferView": 1, "componentType": 5126, "count": 78, "type": "VEC3"}, {"bufferView": 2, "componentType": 5126, "count": 78, "type": "VEC2"}, {"bufferView": 3, "componentType": 5126, "count": 78, "type": "VEC2"}, {"bufferView": 4, "componentType": 5126, "count": 78, "type": "VEC2"}, {"bufferView": 5, "componentType": 5121, "count": 78, "type": "VEC4"}, {"bufferView": 6, "componentType": 5126, "count": 78, "type": "VEC4"}, {"bufferView": 7, "componentType": 5123, "count": 288, "type": "SCALAR"}, {"bufferView": 8, "componentType": 5126, "count": 16, "type": "MAT4"}, {"bufferView": 9, "componentType": 5126, "count": 4025, "max": [0.08857345581054688, 1.7955659627914429, 0.11998149007558823], "min": [-0.08829578012228012, 1.487911581993103, -0.09070394188165665], "type": "VEC3"}, {"bufferView": 10, "componentType": 5126, "count": 4025, "type": "VEC3"}, {"bufferView": 11, "componentType": 5126, "count": 4025, "type": "VEC2"}, {"bufferView": 12, "componentType": 5126, "count": 4025, "type": "VEC2"}, {"bufferView": 13, "componentType": 5126, "count": 4025, "type": "VEC2"}, {"bufferView": 14, "componentType": 5126, "count": 4025, "type": "VEC2"}, {"bufferView": 15, "componentType": 5121, "count": 4025, "type": "VEC4"}, {"bufferView": 16, "componentType": 5126, "count": 4025, "type": "VEC4"}, {"bufferView": 17, "componentType": 5123, "count": 19422, "type": "SCALAR"}, {"bufferView": 18, "componentType": 5126, "count": 60, "max": [-0.017479490488767624, 0.916278600692749, 0.09201330691576004], "min": [-0.18062157928943634, 0.5309416651725769, -0.08939298242330551], "type": "VEC3"}, {"bufferView": 19, "componentType": 5126, "count": 60, "type": "VEC3"}, {"bufferView": 20, "componentType": 5126, "count": 60, "type": "VEC2"}, {"bufferView": 21, "componentType": 5126, "count": 60, "type": "VEC2"}, {"bufferView": 22, "componentType": 5126, "count": 60, "type": "VEC2"}, {"bufferView": 23, "componentType": 5121, "count": 60, "type": "VEC4"}, {"bufferView": 24, "componentType": 5126, "count": 60, "type": "VEC4"}, {"bufferView": 25, "componentType": 5123, "count": 264, "type": "SCALAR"}, {"bufferView": 26, "componentType": 5126, "count": 60, "max": [0.18062157928943634, 0.916278600692749, 0.09201330691576004], "min": [0.017479490488767624, 0.5309416651725769, -0.08939298242330551], "type": "VEC3"}, {"bufferView": 27, "componentType": 5126, "count": 60, "type": "VEC3"}, {"bufferView": 28, "componentType": 5126, "count": 60, "type": "VEC2"}, {"bufferView": 29, "componentType": 5126, "count": 60, "type": "VEC2"}, {"bufferView": 30, "componentType": 5126, "count": 60, "type": "VEC2"}, {"bufferView": 31, "componentType": 5121, "count": 60, "type": "VEC4"}, {"bufferView": 32, "componentType": 5126, "count": 60, "type": "VEC4"}, {"bufferView": 33, "componentType": 5123, "count": 264, "type": "SCALAR"}, {"bufferView": 34, "componentType": 5126, "count": 435, "max": [0.46685171127319336, 1.534282922744751, 0.12085434049367905], "min": [-0.46685171127319336, 1.0725619792938232, -0.11468100547790527], "type": "VEC3"}, {"bufferView": 35, "componentType": 5126, "count": 435, "type": "VEC3"}, {"bufferView": 36, "componentType": 5126, "count": 435, "type": "VEC2"}, {"bufferView": 37, "componentType": 5126, "count": 435, "type": "VEC2"}, {"bufferView": 38, "componentType": 5126, "count": 435, "type": "VEC2"}, {"bufferView": 39, "componentType": 5126, "count": 435, "type": "VEC2"}, {"bufferView": 40, "componentType": 5121, "count": 435, "type": "VEC4"}, {"bufferView": 41, "componentType": 5126, "count": 435, "type": "VEC4"}, {"bufferView": 42, "componentType": 5123, "count": 2046, "type": "SCALAR"}, {"bufferView": 43, "componentType": 5126, "count": 7912, "max": [0.10509276390075684, 1.9301602840423584, 0.103150375187397], "min": [-0.11794173717498779, 1.1981887817382812, -0.28016549348831177], "type": "VEC3"}, {"bufferView": 44, "componentType": 5126, "count": 7912, "type": "VEC3"}, {"bufferView": 45, "componentType": 5126, "count": 7912, "type": "VEC2"}, {"bufferView": 46, "componentType": 5126, "count": 7912, "type": "VEC2"}, {"bufferView": 47, "componentType": 5121, "count": 7912, "type": "VEC4"}, {"bufferView": 48, "componentType": 5126, "count": 7912, "type": "VEC4"}, {"bufferView": 49, "componentType": 5123, "count": 23814, "type": "SCALAR"}, {"bufferView": 50, "componentType": 5126, "count": 6125, "max": [0.5338581800460815, 1.6567306518554688, 0.18466635048389435], "min": [-0.5338581800460815, 0.8913329839706421, -0.27027231454849243], "type": "VEC3"}, {"bufferView": 51, "componentType": 5126, "count": 6125, "type": "VEC3"}, {"bufferView": 52, "componentType": 5126, "count": 6125, "type": "VEC2"}, {"bufferView": 53, "componentType": 5126, "count": 6125, "type": "VEC2"}, {"bufferView": 54, "componentType": 5126, "count": 6125, "type": "VEC2"}, {"bufferView": 55, "componentType": 5126, "count": 6125, "type": "VEC2"}, {"bufferView": 56, "componentType": 5121, "count": 6125, "type": "VEC4"}, {"bufferView": 57, "componentType": 5126, "count": 6125, "type": "VEC4"}, {"bufferView": 58, "componentType": 5123, "count": 25974, "type": "SCALAR"}, {"bufferView": 59, "componentType": 5126, "count": 4075, "max": [0.4483925402164459, 1.124180555343628, 0.15609756112098694], "min": [-0.4483925402164459, -1.2271216931480922e-08, -0.3539886176586151], "type": "VEC3"}, {"bufferView": 60, "componentType": 5126, "count": 4075, "type": "VEC3"}, {"bufferView": 61, "componentType": 5126, "count": 4075, "type": "VEC2"}, {"bufferView": 62, "componentType": 5126, "count": 4075, "type": "VEC2"}, {"bufferView": 63, "componentType": 5126, "count": 4075, "type": "VEC2"}, {"bufferView": 64, "componentType": 5121, "count": 4075, "type": "VEC4"}, {"bufferView": 65, "componentType": 5126, "count": 4075, "type": "VEC4"}, {"bufferView": 66, "componentType": 5123, "count": 15660, "type": "SCALAR"}], "bufferViews": [{"buffer": 0, "byteLength": 936, "byteOffset": 0, "target": 34962}, {"buffer": 0, "byteLength": 936, "byteOffset": 936, "target": 34962}, {"buffer": 0, "byteLength": 624, "byteOffset": 1872, "target": 34962}, {"buffer": 0, "byteLength": 624, "byteOffset": 2496, "target": 34962}, {"buffer": 0, "byteLength": 624, "byteOffset": 3120, "target": 34962}, {"buffer": 0, "byteLength": 312, "byteOffset": 3744, "target": 34962}, {"buffer": 0, "byteLength": 1248, "byteOffset": 4056, "target": 34962}, {"buffer": 0, "byteLength": 576, "byteOffset": 5304, "target": 34963}, {"buffer": 0, "byteLength": 1024, "byteOffset": 5880}, {"buffer": 0, "byteLength": 48300, "byteOffset": 6904, "target": 34962}, {"buffer": 0, "byteLength": 48300, "byteOffset": 55204, "target": 34962}, {"buffer": 0, "byteLength": 32200, "byteOffset": 103504, "target": 34962}, {"buffer": 0, "byteLength": 32200, "byteOffset": 135704, "target": 34962}, {"buffer": 0, "byteLength": 32200, "byteOffset": 167904, "target": 34962}, {"buffer": 0, "byteLength": 32200, "byteOffset": 200104, "target": 34962}, {"buffer": 0, "byteLength": 16100, "byteOffset": 232304, "target": 34962}, {"buffer": 0, "byteLength": 64400, "byteOffset": 248404, "target": 34962}, {"buffer": 0, "byteLength": 38844, "byteOffset": 312804, "target": 34963}, {"buffer": 0, "byteLength": 720, "byteOffset": 351648, "target": 34962}, {"buffer": 0, "byteLength": 720, "byteOffset": 352368, "target": 34962}, {"buffer": 0, "byteLength": 480, "byteOffset": 353088, "target": 34962}, {"buffer": 0, "byteLength": 480, "byteOffset": 353568, "target": 34962}, {"buffer": 0, "byteLength": 480, "byteOffset": 354048, "target": 34962}, {"buffer": 0, "byteLength": 240, "byteOffset": 354528, "target": 34962}, {"buffer": 0, "byteLength": 960, "byteOffset": 354768, "target": 34962}, {"buffer": 0, "byteLength": 528, "byteOffset": 355728, "target": 34963}, {"buffer": 0, "byteLength": 720, "byteOffset": 356256, "target": 34962}, {"buffer": 0, "byteLength": 720, "byteOffset": 356976, "target": 34962}, {"buffer": 0, "byteLength": 480, "byteOffset": 357696, "target": 34962}, {"buffer": 0, "byteLength": 480, "byteOffset": 358176, "target": 34962}, {"buffer": 0, "byteLength": 480, "byteOffset": 358656, "target": 34962}, {"buffer": 0, "byteLength": 240, "byteOffset": 359136, "target": 34962}, {"buffer": 0, "byteLength": 960, "byteOffset": 359376, "target": 34962}, {"buffer": 0, "byteLength": 528, "byteOffset": 360336, "target": 34963}, {"buffer": 0, "byteLength": 5220, "byteOffset": 360864, "target": 34962}, {"buffer": 0, "byteLength": 5220, "byteOffset": 366084, "target": 34962}, {"buffer": 0, "byteLength": 3480, "byteOffset": 371304, "target": 34962}, {"buffer": 0, "byteLength": 3480, "byteOffset": 374784, "target": 34962}, {"buffer": 0, "byteLength": 3480, "byteOffset": 378264, "target": 34962}, {"buffer": 0, "byteLength": 3480, "byteOffset": 381744, "target": 34962}, {"buffer": 0, "byteLength": 1740, "byteOffset": 385224, "target": 34962}, {"buffer": 0, "byteLength": 6960, "byteOffset": 386964, "target": 34962}, {"buffer": 0, "byteLength": 4092, "byteOffset": 393924, "target": 34963}, {"buffer": 0, "byteLength": 94944, "byteOffset": 398016, "target": 34962}, {"buffer": 0, "byteLength": 94944, "byteOffset": 492960, "target": 34962}, {"buffer": 0, "byteLength": 63296, "byteOffset": 587904, "target": 34962}, {"buffer": 0, "byteLength": 63296, "byteOffset": 651200, "target": 34962}, {"buffer": 0, "byteLength": 31648, "byteOffset": 714496, "target": 34962}, {"buffer": 0, "byteLength": 126592, "byteOffset": 746144, "target": 34962}, {"buffer": 0, "byteLength": 47628, "byteOffset": 872736, "target": 34963}, {"buffer": 0, "byteLength": 73500, "byteOffset": 920364, "target": 34962}, {"buffer": 0, "byteLength": 73500, "byteOffset": 993864, "target": 34962}, {"buffer": 0, "byteLength": 49000, "byteOffset": 1067364, "target": 34962}, {"buffer": 0, "byteLength": 49000, "byteOffset": 1116364, "target": 34962}, {"buffer": 0, "byteLength": 49000, "byteOffset": 1165364, "target": 34962}, {"buffer": 0, "byteLength": 49000, "byteOffset": 1214364, "target": 34962}, {"buffer": 0, "byteLength": 24500, "byteOffset": 1263364, "target": 34962}, {"buffer": 0, "byteLength": 98000, "byteOffset": 1287864, "target": 34962}, {"buffer": 0, "byteLength": 51948, "byteOffset": 1385864, "target": 34963}, {"buffer": 0, "byteLength": 48900, "byteOffset": 1437812, "target": 34962}, {"buffer": 0, "byteLength": 48900, "byteOffset": 1486712, "target": 34962}, {"buffer": 0, "byteLength": 32600, "byteOffset": 1535612, "target": 34962}, {"buffer": 0, "byteLength": 32600, "byteOffset": 1568212, "target": 34962}, {"buffer": 0, "byteLength": 32600, "byteOffset": 1600812, "target": 34962}, {"buffer": 0, "byteLength": 16300, "byteOffset": 1633412, "target": 34962}, {"buffer": 0, "byteLength": 65200, "byteOffset": 1649712, "target": 34962}, {"buffer": 0, "byteLength": 31320, "byteOffset": 1714912, "target": 34963}], "samplers": [{"magFilter": 9729, "minFilter": 9987}], "buffers": [{"byteLength": 1746232, "uri": "scene.bin"}]}