{
	"asset":{
		"generator":"Khronos glTF Blender I/O v5.1.20",
		"version":"2.0"
	},
	"scene":0,
	"scenes":[
		{
			"name":"Scene",
			"nodes":[
				9,
				31
			]
		}
	],
	"nodes":[
		{
			"name":"BilloXD Chest_6",
			"scale":[
				0.009999999776482582,
				0.009999999776482582,
				0.009999999776482582
			]
		},
		{
			"name":"BilloXD Face_4",
			"scale":[
				0.009999999776482582,
				0.009999999776482582,
				0.009999999776482582
			]
		},
		{
			"name":"BilloXD Hair Band_3",
			"scale":[
				0.009999999776482582,
				0.009999999776482582,
				0.009999999776482582
			]
		},
		{
			"name":"BilloXD Hairs_0",
			"scale":[
				0.009999999776482582,
				0.009999999776482582,
				0.009999999776482582
			]
		},
		{
			"name":"BilloXD Legs_5",
			"scale":[
				0.009999999776482582,
				0.009999999776482582,
				0.009999999776482582
			]
		},
		{
			"name":"BilloXD Lower_2",
			"scale":[
				0.009999999776482582,
				0.009999999776482582,
				0.009999999776482582
			]
		},
		{
			"name":"BilloXD Upper_1",
			"scale":[
				0.009999999776482582,
				0.009999999776482582,
				0.009999999776482582
			]
		},
		{
			"children":[
				0,
				1,
				2,
				3,
				4,
				5,
				6
			],
			"name":"GLTF_SceneRootNode",
			"rotation":[
				0.70710688829422,
				0,
				0,
				0.7071066498756409
			]
		},
		{
			"children":[
				7
			],
			"name":"root"
		},
		{
			"children":[
				8
			],
			"name":"Sketchfab_model",
			"rotation":[
				0,
				-0.7071068286895752,
				-0.7071068286895752,
				1.00153539642818e-16
			]
		},
		{
			"name":"Head",
			"rotation":[
				-0.07259131222963333,
				0,
				0,
				0.9973617792129517
			],
			"translation":[
				0,
				0.04123101010918617,
				0
			]
		},
		{
			"children":[
				10
			],
			"name":"Neck",
			"rotation":[
				0.3192475140094757,
				0,
				0,
				0.9476714134216309
			],
			"scale":[
				1,
				0.9999998807907104,
				0.9999999403953552
			],
			"translation":[
				0,
				0.07615767419338226,
				-3.725290298461914e-08
			]
		},
		{
			"name":"Forearm.L",
			"rotation":[
				0.05195947363972664,
				0.15388241410255432,
				-0.09679241478443146,
				0.9819631576538086
			],
			"scale":[
				1,
				1,
				1.0000001192092896
			],
			"translation":[
				9.406358003616333e-08,
				0.26952165365219116,
				-1.862645149230957e-09
			]
		},
		{
			"children":[
				12
			],
			"name":"UpperArm.L",
			"rotation":[
				-0.950164258480072,
				-0.16764746606349945,
				-0.254243940114975,
				0.0666501447558403
			],
			"scale":[
				0.9999997019767761,
				0.9999999403953552,
				0.9999999403953552
			],
			"translation":[
				0.10999999940395355,
				0.041098810732364655,
				-0.040048450231552124
			]
		},
		{
			"name":"Forearm.R",
			"rotation":[
				0.05195947363972664,
				-0.15388241410255432,
				0.09679241478443146,
				0.9819631576538086
			],
			"scale":[
				1,
				1,
				1.0000001192092896
			],
			"translation":[
				-9.406358003616333e-08,
				0.26952165365219116,
				-1.862645149230957e-09
			]
		},
		{
			"children":[
				14
			],
			"name":"UpperArm.R",
			"rotation":[
				-0.950164258480072,
				0.16764746606349945,
				0.254243940114975,
				0.0666501447558403
			],
			"scale":[
				0.9999997019767761,
				0.9999999403953552,
				0.9999999403953552
			],
			"translation":[
				-0.10999999940395355,
				0.041098810732364655,
				-0.040048450231552124
			]
		},
		{
			"children":[
				11,
				13,
				15
			],
			"name":"Chest",
			"rotation":[
				-0.15201975405216217,
				0,
				0,
				0.9883774518966675
			],
			"scale":[
				1,
				0.9999999403953552,
				1
			],
			"translation":[
				0,
				0.401994913816452,
				3.725290298461914e-09
			]
		},
		{
			"children":[
				16
			],
			"name":"Spine",
			"rotation":[
				-0.05301455035805702,
				0,
				0,
				0.9985937476158142
			],
			"translation":[
				0,
				0.15600311756134033,
				-1.862645149230957e-09
			]
		},
		{
			"name":"Shin.L",
			"rotation":[
				-0.021436147391796112,
				-0.030392907559871674,
				0.029897285625338554,
				0.9988608360290527
			],
			"scale":[
				1,
				0.9999998211860657,
				1
			],
			"translation":[
				7.916241884231567e-09,
				0.4423810541629791,
				-4.6566128730773926e-09
			]
		},
		{
			"children":[
				18
			],
			"name":"Thigh.L",
			"rotation":[
				-0.9986342191696167,
				-0.03572291135787964,
				-0.035495854914188385,
				0.013914993964135647
			],
			"scale":[
				1.0000076293945312,
				0.9999997615814209,
				1.0000008344650269
			],
			"translation":[
				0.11400000005960464,
				-2.7750502340495586e-08,
				0
			]
		},
		{
			"name":"Shin.R",
			"rotation":[
				-0.021436147391796112,
				0.030392907559871674,
				-0.029897285625338554,
				0.9988608360290527
			],
			"scale":[
				1,
				0.9999998211860657,
				1
			],
			"translation":[
				-7.916241884231567e-09,
				0.4423810541629791,
				-4.6566128730773926e-09
			]
		},
		{
			"children":[
				20
			],
			"name":"Thigh.R",
			"rotation":[
				-0.9986342191696167,
				0.03572291135787964,
				0.035495854914188385,
				0.013914993964135647
			],
			"scale":[
				1.0000076293945312,
				0.9999997615814209,
				1.0000008344650269
			],
			"translation":[
				-0.11400000005960464,
				-2.7750502340495586e-08,
				0
			]
		},
		{
			"children":[
				17,
				19,
				21
			],
			"name":"Pelvis",
			"rotation":[
				0.0032051086891442537,
				0,
				0,
				0.9999948740005493
			],
			"translation":[
				0,
				0.9940000176429749,
				-0.020999999716877937
			]
		},
		{
			"name":"neutral_bone",
			"rotation":[
				-0.7071067690849304,
				0,
				0,
				0.7071067690849304
			]
		},
		{
			"mesh":0,
			"name":"Object_10",
			"skin":0
		},
		{
			"mesh":1,
			"name":"Object_12",
			"skin":0
		},
		{
			"mesh":2,
			"name":"Object_14",
			"skin":0
		},
		{
			"mesh":3,
			"name":"Object_16",
			"skin":0
		},
		{
			"mesh":4,
			"name":"Object_4",
			"skin":0
		},
		{
			"mesh":5,
			"name":"Object_6",
			"skin":0
		},
		{
			"mesh":6,
			"name":"Object_8",
			"skin":0
		},
		{
			"children":[
				24,
				25,
				26,
				27,
				28,
				29,
				30,
				22,
				23
			],
			"name":"FairyPunkArmature"
		}
	],
	"meshes":[
		{
			"name":"Object_3",
			"primitives":[
				{
					"attributes":{
						"POSITION":0,
						"NORMAL":1,
						"TEXCOORD_0":2,
						"TEXCOORD_1":3,
						"TEXCOORD_2":4,
						"JOINTS_0":5,
						"WEIGHTS_0":6
					},
					"indices":7
				}
			]
		},
		{
			"name":"Object_4",
			"primitives":[
				{
					"attributes":{
						"POSITION":9,
						"NORMAL":10,
						"TEXCOORD_0":11,
						"TEXCOORD_1":12,
						"TEXCOORD_2":13,
						"TEXCOORD_3":14,
						"JOINTS_0":15,
						"WEIGHTS_0":16
					},
					"indices":17
				}
			]
		},
		{
			"name":"Object_5",
			"primitives":[
				{
					"attributes":{
						"POSITION":18,
						"NORMAL":19,
						"TEXCOORD_0":20,
						"TEXCOORD_1":21,
						"TEXCOORD_2":22,
						"JOINTS_0":23,
						"WEIGHTS_0":24
					},
					"indices":25
				}
			]
		},
		{
			"name":"Object_6",
			"primitives":[
				{
					"attributes":{
						"POSITION":26,
						"NORMAL":27,
						"TEXCOORD_0":28,
						"TEXCOORD_1":29,
						"TEXCOORD_2":30,
						"TEXCOORD_3":31,
						"JOINTS_0":32,
						"WEIGHTS_0":33
					},
					"indices":34
				}
			]
		},
		{
			"name":"Object_0",
			"primitives":[
				{
					"attributes":{
						"POSITION":35,
						"NORMAL":36,
						"TEXCOORD_0":37,
						"TEXCOORD_1":38,
						"JOINTS_0":39,
						"WEIGHTS_0":40
					},
					"indices":41
				}
			]
		},
		{
			"name":"Object_1",
			"primitives":[
				{
					"attributes":{
						"POSITION":42,
						"NORMAL":43,
						"TEXCOORD_0":44,
						"TEXCOORD_1":45,
						"TEXCOORD_2":46,
						"TEXCOORD_3":47,
						"JOINTS_0":48,
						"WEIGHTS_0":49
					},
					"indices":50
				}
			]
		},
		{
			"name":"Object_2",
			"primitives":[
				{
					"attributes":{
						"POSITION":51,
						"NORMAL":52,
						"TEXCOORD_0":53,
						"TEXCOORD_1":54,
						"TEXCOORD_2":55,
						"JOINTS_0":56,
						"WEIGHTS_0":57
					},
					"indices":58
				}
			]
		}
	],
	"skins":[
		{
			"inverseBindMatrices":8,
			"joints":[
				22,
				17,
				16,
				11,
				10,
				13,
				12,
				15,
				14,
				19,
				18,
				21,
				20,
				23
			],
			"name":"FairyPunkArmature"
		}
	],
	"accessors":[
		{
			"bufferView":0,
			"componentType":5126,
			"count":78,
			"max":[
				0.02324487641453743,
				1.8776732683181763,
				-0.003575636073946953
			],
			"min":[
				-0.027083847671747208,
				1.8086055517196655,
				-0.06473652273416519
			],
			"type":"VEC3"
		},
		{
			"bufferView":1,
			"componentType":5126,
			"count":78,
			"type":"VEC3"
		},
		{
			"bufferView":2,
			"componentType":5126,
			"count":78,
			"type":"VEC2"
		},
		{
			"bufferView":3,
			"componentType":5126,
			"count":78,
			"type":"VEC2"
		},
		{
			"bufferView":4,
			"componentType":5126,
			"count":78,
			"type":"VEC2"
		},
		{
			"bufferView":5,
			"componentType":5121,
			"count":78,
			"type":"VEC4"
		},
		{
			"bufferView":6,
			"componentType":5126,
			"count":78,
			"type":"VEC4"
		},
		{
			"bufferView":7,
			"componentType":5123,
			"count":288,
			"type":"SCALAR"
		},
		{
			"bufferView":8,
			"componentType":5126,
			"count":14,
			"type":"MAT4"
		},
		{
			"bufferView":9,
			"componentType":5126,
			"count":4025,
			"max":[
				0.08857345581054688,
				1.7955659627914429,
				0.11998149007558823
			],
			"min":[
				-0.08829578012228012,
				1.487911581993103,
				-0.09070394188165665
			],
			"type":"VEC3"
		},
		{
			"bufferView":10,
			"componentType":5126,
			"count":4025,
			"type":"VEC3"
		},
		{
			"bufferView":11,
			"componentType":5126,
			"count":4025,
			"type":"VEC2"
		},
		{
			"bufferView":12,
			"componentType":5126,
			"count":4025,
			"type":"VEC2"
		},
		{
			"bufferView":13,
			"componentType":5126,
			"count":4025,
			"type":"VEC2"
		},
		{
			"bufferView":14,
			"componentType":5126,
			"count":4025,
			"type":"VEC2"
		},
		{
			"bufferView":15,
			"componentType":5121,
			"count":4025,
			"type":"VEC4"
		},
		{
			"bufferView":16,
			"componentType":5126,
			"count":4025,
			"type":"VEC4"
		},
		{
			"bufferView":17,
			"componentType":5123,
			"count":19422,
			"type":"SCALAR"
		},
		{
			"bufferView":18,
			"componentType":5126,
			"count":120,
			"max":[
				0.18062157928943634,
				0.916278600692749,
				0.09201330691576004
			],
			"min":[
				-0.18062157928943634,
				0.5309416651725769,
				-0.08939298242330551
			],
			"type":"VEC3"
		},
		{
			"bufferView":19,
			"componentType":5126,
			"count":120,
			"type":"VEC3"
		},
		{
			"bufferView":20,
			"componentType":5126,
			"count":120,
			"type":"VEC2"
		},
		{
			"bufferView":21,
			"componentType":5126,
			"count":120,
			"type":"VEC2"
		},
		{
			"bufferView":22,
			"componentType":5126,
			"count":120,
			"type":"VEC2"
		},
		{
			"bufferView":23,
			"componentType":5121,
			"count":120,
			"type":"VEC4"
		},
		{
			"bufferView":24,
			"componentType":5126,
			"count":120,
			"type":"VEC4"
		},
		{
			"bufferView":25,
			"componentType":5123,
			"count":528,
			"type":"SCALAR"
		},
		{
			"bufferView":26,
			"componentType":5126,
			"count":435,
			"max":[
				0.46685171127319336,
				1.534282922744751,
				0.12085434049367905
			],
			"min":[
				-0.46685171127319336,
				1.0725619792938232,
				-0.11468100547790527
			],
			"type":"VEC3"
		},
		{
			"bufferView":27,
			"componentType":5126,
			"count":435,
			"type":"VEC3"
		},
		{
			"bufferView":28,
			"componentType":5126,
			"count":435,
			"type":"VEC2"
		},
		{
			"bufferView":29,
			"componentType":5126,
			"count":435,
			"type":"VEC2"
		},
		{
			"bufferView":30,
			"componentType":5126,
			"count":435,
			"type":"VEC2"
		},
		{
			"bufferView":31,
			"componentType":5126,
			"count":435,
			"type":"VEC2"
		},
		{
			"bufferView":32,
			"componentType":5121,
			"count":435,
			"type":"VEC4"
		},
		{
			"bufferView":33,
			"componentType":5126,
			"count":435,
			"type":"VEC4"
		},
		{
			"bufferView":34,
			"componentType":5123,
			"count":2046,
			"type":"SCALAR"
		},
		{
			"bufferView":35,
			"componentType":5126,
			"count":7912,
			"max":[
				0.10509276390075684,
				1.9301602840423584,
				0.103150375187397
			],
			"min":[
				-0.11794173717498779,
				1.1981887817382812,
				-0.28016549348831177
			],
			"type":"VEC3"
		},
		{
			"bufferView":36,
			"componentType":5126,
			"count":7912,
			"type":"VEC3"
		},
		{
			"bufferView":37,
			"componentType":5126,
			"count":7912,
			"type":"VEC2"
		},
		{
			"bufferView":38,
			"componentType":5126,
			"count":7912,
			"type":"VEC2"
		},
		{
			"bufferView":39,
			"componentType":5121,
			"count":7912,
			"type":"VEC4"
		},
		{
			"bufferView":40,
			"componentType":5126,
			"count":7912,
			"type":"VEC4"
		},
		{
			"bufferView":41,
			"componentType":5123,
			"count":23814,
			"type":"SCALAR"
		},
		{
			"bufferView":42,
			"componentType":5126,
			"count":6125,
			"max":[
				0.5338581800460815,
				1.6567306518554688,
				0.18466635048389435
			],
			"min":[
				-0.5338581800460815,
				0.8913329839706421,
				-0.27027231454849243
			],
			"type":"VEC3"
		},
		{
			"bufferView":43,
			"componentType":5126,
			"count":6125,
			"type":"VEC3"
		},
		{
			"bufferView":44,
			"componentType":5126,
			"count":6125,
			"type":"VEC2"
		},
		{
			"bufferView":45,
			"componentType":5126,
			"count":6125,
			"type":"VEC2"
		},
		{
			"bufferView":46,
			"componentType":5126,
			"count":6125,
			"type":"VEC2"
		},
		{
			"bufferView":47,
			"componentType":5126,
			"count":6125,
			"type":"VEC2"
		},
		{
			"bufferView":48,
			"componentType":5121,
			"count":6125,
			"type":"VEC4"
		},
		{
			"bufferView":49,
			"componentType":5126,
			"count":6125,
			"type":"VEC4"
		},
		{
			"bufferView":50,
			"componentType":5123,
			"count":25974,
			"type":"SCALAR"
		},
		{
			"bufferView":51,
			"componentType":5126,
			"count":4075,
			"max":[
				0.4483925402164459,
				1.124180555343628,
				0.15609756112098694
			],
			"min":[
				-0.4483925402164459,
				-1.2271216931480922e-08,
				-0.3539886176586151
			],
			"type":"VEC3"
		},
		{
			"bufferView":52,
			"componentType":5126,
			"count":4075,
			"type":"VEC3"
		},
		{
			"bufferView":53,
			"componentType":5126,
			"count":4075,
			"type":"VEC2"
		},
		{
			"bufferView":54,
			"componentType":5126,
			"count":4075,
			"type":"VEC2"
		},
		{
			"bufferView":55,
			"componentType":5126,
			"count":4075,
			"type":"VEC2"
		},
		{
			"bufferView":56,
			"componentType":5121,
			"count":4075,
			"type":"VEC4"
		},
		{
			"bufferView":57,
			"componentType":5126,
			"count":4075,
			"type":"VEC4"
		},
		{
			"bufferView":58,
			"componentType":5123,
			"count":15660,
			"type":"SCALAR"
		}
	],
	"bufferViews":[
		{
			"buffer":0,
			"byteLength":936,
			"byteOffset":0,
			"target":34962
		},
		{
			"buffer":0,
			"byteLength":936,
			"byteOffset":936,
			"target":34962
		},
		{
			"buffer":0,
			"byteLength":624,
			"byteOffset":1872,
			"target":34962
		},
		{
			"buffer":0,
			"byteLength":624,
			"byteOffset":2496,
			"target":34962
		},
		{
			"buffer":0,
			"byteLength":624,
			"byteOffset":3120,
			"target":34962
		},
		{
			"buffer":0,
			"byteLength":312,
			"byteOffset":3744,
			"target":34962
		},
		{
			"buffer":0,
			"byteLength":1248,
			"byteOffset":4056,
			"target":34962
		},
		{
			"buffer":0,
			"byteLength":576,
			"byteOffset":5304,
			"target":34963
		},
		{
			"buffer":0,
			"byteLength":896,
			"byteOffset":5880
		},
		{
			"buffer":0,
			"byteLength":48300,
			"byteOffset":6776,
			"target":34962
		},
		{
			"buffer":0,
			"byteLength":48300,
			"byteOffset":55076,
			"target":34962
		},
		{
			"buffer":0,
			"byteLength":32200,
			"byteOffset":103376,
			"target":34962
		},
		{
			"buffer":0,
			"byteLength":32200,
			"byteOffset":135576,
			"target":34962
		},
		{
			"buffer":0,
			"byteLength":32200,
			"byteOffset":167776,
			"target":34962
		},
		{
			"buffer":0,
			"byteLength":32200,
			"byteOffset":199976,
			"target":34962
		},
		{
			"buffer":0,
			"byteLength":16100,
			"byteOffset":232176,
			"target":34962
		},
		{
			"buffer":0,
			"byteLength":64400,
			"byteOffset":248276,
			"target":34962
		},
		{
			"buffer":0,
			"byteLength":38844,
			"byteOffset":312676,
			"target":34963
		},
		{
			"buffer":0,
			"byteLength":1440,
			"byteOffset":351520,
			"target":34962
		},
		{
			"buffer":0,
			"byteLength":1440,
			"byteOffset":352960,
			"target":34962
		},
		{
			"buffer":0,
			"byteLength":960,
			"byteOffset":354400,
			"target":34962
		},
		{
			"buffer":0,
			"byteLength":960,
			"byteOffset":355360,
			"target":34962
		},
		{
			"buffer":0,
			"byteLength":960,
			"byteOffset":356320,
			"target":34962
		},
		{
			"buffer":0,
			"byteLength":480,
			"byteOffset":357280,
			"target":34962
		},
		{
			"buffer":0,
			"byteLength":1920,
			"byteOffset":357760,
			"target":34962
		},
		{
			"buffer":0,
			"byteLength":1056,
			"byteOffset":359680,
			"target":34963
		},
		{
			"buffer":0,
			"byteLength":5220,
			"byteOffset":360736,
			"target":34962
		},
		{
			"buffer":0,
			"byteLength":5220,
			"byteOffset":365956,
			"target":34962
		},
		{
			"buffer":0,
			"byteLength":3480,
			"byteOffset":371176,
			"target":34962
		},
		{
			"buffer":0,
			"byteLength":3480,
			"byteOffset":374656,
			"target":34962
		},
		{
			"buffer":0,
			"byteLength":3480,
			"byteOffset":378136,
			"target":34962
		},
		{
			"buffer":0,
			"byteLength":3480,
			"byteOffset":381616,
			"target":34962
		},
		{
			"buffer":0,
			"byteLength":1740,
			"byteOffset":385096,
			"target":34962
		},
		{
			"buffer":0,
			"byteLength":6960,
			"byteOffset":386836,
			"target":34962
		},
		{
			"buffer":0,
			"byteLength":4092,
			"byteOffset":393796,
			"target":34963
		},
		{
			"buffer":0,
			"byteLength":94944,
			"byteOffset":397888,
			"target":34962
		},
		{
			"buffer":0,
			"byteLength":94944,
			"byteOffset":492832,
			"target":34962
		},
		{
			"buffer":0,
			"byteLength":63296,
			"byteOffset":587776,
			"target":34962
		},
		{
			"buffer":0,
			"byteLength":63296,
			"byteOffset":651072,
			"target":34962
		},
		{
			"buffer":0,
			"byteLength":31648,
			"byteOffset":714368,
			"target":34962
		},
		{
			"buffer":0,
			"byteLength":126592,
			"byteOffset":746016,
			"target":34962
		},
		{
			"buffer":0,
			"byteLength":47628,
			"byteOffset":872608,
			"target":34963
		},
		{
			"buffer":0,
			"byteLength":73500,
			"byteOffset":920236,
			"target":34962
		},
		{
			"buffer":0,
			"byteLength":73500,
			"byteOffset":993736,
			"target":34962
		},
		{
			"buffer":0,
			"byteLength":49000,
			"byteOffset":1067236,
			"target":34962
		},
		{
			"buffer":0,
			"byteLength":49000,
			"byteOffset":1116236,
			"target":34962
		},
		{
			"buffer":0,
			"byteLength":49000,
			"byteOffset":1165236,
			"target":34962
		},
		{
			"buffer":0,
			"byteLength":49000,
			"byteOffset":1214236,
			"target":34962
		},
		{
			"buffer":0,
			"byteLength":24500,
			"byteOffset":1263236,
			"target":34962
		},
		{
			"buffer":0,
			"byteLength":98000,
			"byteOffset":1287736,
			"target":34962
		},
		{
			"buffer":0,
			"byteLength":51948,
			"byteOffset":1385736,
			"target":34963
		},
		{
			"buffer":0,
			"byteLength":48900,
			"byteOffset":1437684,
			"target":34962
		},
		{
			"buffer":0,
			"byteLength":48900,
			"byteOffset":1486584,
			"target":34962
		},
		{
			"buffer":0,
			"byteLength":32600,
			"byteOffset":1535484,
			"target":34962
		},
		{
			"buffer":0,
			"byteLength":32600,
			"byteOffset":1568084,
			"target":34962
		},
		{
			"buffer":0,
			"byteLength":32600,
			"byteOffset":1600684,
			"target":34962
		},
		{
			"buffer":0,
			"byteLength":16300,
			"byteOffset":1633284,
			"target":34962
		},
		{
			"buffer":0,
			"byteLength":65200,
			"byteOffset":1649584,
			"target":34962
		},
		{
			"buffer":0,
			"byteLength":31320,
			"byteOffset":1714784,
			"target":34963
		}
	],
	"buffers":[
		{
			"byteLength":1746104,
			"uri":"scene.bin"
		}
	]
}
