{"asset": {"generator": "Khronos glTF Blender I/O v5.1.20", "version": "2.0"}, "scene": 0, "scenes": [{"name": "Scene", "nodes": [20]}], "nodes": [{"name": "Head", "translation": [0, 0.1799999475479126, 0]}, {"children": [0], "name": "Neck", "translation": [0, 0.11000001430511475, 0]}, {"name": "Forearm.L", "rotation": [0, -7.549790126404332e-08, 0, 1], "translation": [3.019915872926049e-09, 0.30000007152557373, -3.9683811792201595e-10]}, {"children": [2], "name": "UpperArm.L", "rotation": [1, 0, 7.549790126404332e-08, 0], "translation": [-0.20000000298023224, 0, 0]}, {"name": "Forearm.R", "rotation": [0, -7.549790126404332e-08, 0, 1], "translation": [3.019915872926049e-09, 0.30000007152557373, 3.9683811792201595e-10]}, {"children": [4], "name": "UpperArm.R", "rotation": [1, 0, 7.549790126404332e-08, 0], "translation": [0.20000000298023224, 0, 0]}, {"children": [1, 3, 5], "name": "Chest", "translation": [0, 0.20000004768371582, 0]}, {"children": [6], "name": "Spine", "translation": [0, 0.19999998807907104, 0]}, {"name": "Shin.L", "rotation": [0, -7.549790126404332e-08, 0, 1], "translation": [3.019915872926049e-09, 0.3999999761581421, 1.5426770971771475e-10]}, {"children": [8], "name": "Thigh.L", "rotation": [1, 0, 7.549790126404332e-08, 0], "translation": [-0.10999999940395355, 0, 0]}, {"name": "Shin.R", "rotation": [0, -7.549790126404332e-08, 0, 1], "translation": [3.019915872926049e-09, 0.3999999761581421, -1.5426770971771475e-10]}, {"children": [10], "name": "Thigh.R", "rotation": [1, 0, 7.549790126404332e-08, 0], "translation": [0.10999999940395355, 0, 0]}, {"children": [7, 9, 11], "name": "Pelvis", "translation": [0, 0.949999988079071, 0.019999999552965164]}, {"mesh": 0, "name": "BilloXD Chest", "skin": 0}, {"mesh": 1, "name": "BilloXD Face", "skin": 0}, {"mesh": 2, "name": "BilloXD Hair Band", "skin": 0}, {"mesh": 3, "name": "BilloXD Hairs", "skin": 0}, {"mesh": 4, "name": "BilloXD Legs", "skin": 0}, {"mesh": 5, "name": "BilloXD Lower", "skin": 0}, {"mesh": 6, "name": "BilloXD Upper", "skin": 0}, {"children": [13, 14, 15, 16, 17, 18, 19, 12], "name": "Armature"}], "meshes": [{"name": "Mesh_0008.rip_mesh0000", "primitives": [{"attributes": {"POSITION": 0, "NORMAL": 1, "TEXCOORD_0": 2, "JOINTS_0": 3, "WEIGHTS_0": 4}, "indices": 5, "material": 0}]}, {"name": "Mesh_0010.rip_mesh0000.002", "primitives": [{"attributes": {"POSITION": 7, "NORMAL": 8, "TEXCOORD_0": 9, "JOINTS_0": 10, "WEIGHTS_0": 11}, "indices": 12, "material": 1}]}, {"name": "Mesh_0011.rip_mesh0000.001", "primitives": [{"attributes": {"POSITION": 13, "NORMAL": 14, "TEXCOORD_0": 15, "JOINTS_0": 16, "WEIGHTS_0": 17}, "indices": 18, "material": 2}]}, {"name": "Mesh_0014.rip_mesh0000", "primitives": [{"attributes": {"POSITION": 19, "NORMAL": 20, "TEXCOORD_0": 21, "JOINTS_0": 22, "WEIGHTS_0": 23}, "indices": 24, "material": 3}]}, {"name": "Mesh_0009.rip_mesh0000.001", "primitives": [{"attributes": {"POSITION": 25, "NORMAL": 26, "TEXCOORD_0": 27, "JOINTS_0": 28, "WEIGHTS_0": 29}, "indices": 30, "material": 4}]}, {"name": "Mesh_0012.rip_mesh0000.002", "primitives": [{"attributes": {"POSITION": 31, "NORMAL": 32, "TEXCOORD_0": 33, "JOINTS_0": 34, "WEIGHTS_0": 35}, "indices": 36, "material": 5}]}, {"name": "Mesh_0013.rip_mesh0000.001", "primitives": [{"attributes": {"POSITION": 37, "NORMAL": 38, "TEXCOORD_0": 39, "JOINTS_0": 40, "WEIGHTS_0": 41}, "indices": 42, "material": 6}]}], "skins": [{"inverseBindMatrices": 6, "joints": [12, 7, 6, 1, 0, 3, 2, 5, 4, 9, 8, 11, 10], "name": "Armature"}], "accessors": [{"bufferView": 0, "componentType": 5126, "count": 435, "max": [0.4668515622615814, 1.5342824459075928, 0.11468078196048737], "min": [-0.4668515622615814, 1.0725616216659546, -0.12085448950529099], "type": "VEC3"}, {"bufferView": 1, "componentType": 5126, "count": 435, "type": "VEC3"}, {"bufferView": 2, "componentType": 5126, "count": 435, "type": "VEC2"}, {"bufferView": 3, "componentType": 5121, "count": 435, "type": "VEC4"}, {"bufferView": 4, "componentType": 5126, "count": 435, "type": "VEC4"}, {"bufferView": 5, "componentType": 5123, "count": 2046, "type": "SCALAR"}, {"bufferView": 6, "componentType": 5126, "count": 13, "type": "MAT4"}, {"bufferView": 7, "componentType": 5126, "count": 4025, "max": [0.08829575031995773, 1.7955654859542847, 0.09070368856191635], "min": [-0.08857343345880508, 1.4879112243652344, -0.11998167634010315], "type": "VEC3"}, {"bufferView": 8, "componentType": 5126, "count": 4025, "type": "VEC3"}, {"bufferView": 9, "componentType": 5126, "count": 4025, "type": "VEC2"}, {"bufferView": 10, "componentType": 5121, "count": 4025, "type": "VEC4"}, {"bufferView": 11, "componentType": 5126, "count": 4025, "type": "VEC4"}, {"bufferView": 12, "componentType": 5123, "count": 19422, "type": "SCALAR"}, {"bufferView": 13, "componentType": 5126, "count": 78, "max": [0.02708384022116661, 1.8776726722717285, 0.0647362470626831], "min": [-0.023244868963956833, 1.8086049556732178, 0.0035753899719566107], "type": "VEC3"}, {"bufferView": 14, "componentType": 5126, "count": 78, "type": "VEC3"}, {"bufferView": 15, "componentType": 5126, "count": 78, "type": "VEC2"}, {"bufferView": 16, "componentType": 5121, "count": 78, "type": "VEC4"}, {"bufferView": 17, "componentType": 5126, "count": 78, "type": "VEC4"}, {"bufferView": 18, "componentType": 5123, "count": 288, "type": "SCALAR"}, {"bufferView": 19, "componentType": 5126, "count": 7912, "max": [0.11794169992208481, 1.9301596879959106, 0.2801651954650879], "min": [-0.10509273409843445, 1.1981884241104126, -0.10315057635307312], "type": "VEC3"}, {"bufferView": 20, "componentType": 5126, "count": 7912, "type": "VEC3"}, {"bufferView": 21, "componentType": 5126, "count": 7912, "type": "VEC2"}, {"bufferView": 22, "componentType": 5121, "count": 7912, "type": "VEC4"}, {"bufferView": 23, "componentType": 5126, "count": 7912, "type": "VEC4"}, {"bufferView": 24, "componentType": 5123, "count": 23814, "type": "SCALAR"}, {"bufferView": 25, "componentType": 5126, "count": 120, "max": [0.18062151968479156, 0.9162783622741699, 0.08939284831285477], "min": [-0.18062151968479156, 0.5309414863586426, -0.0920133963227272], "type": "VEC3"}, {"bufferView": 26, "componentType": 5126, "count": 120, "type": "VEC3"}, {"bufferView": 27, "componentType": 5126, "count": 120, "type": "VEC2"}, {"bufferView": 28, "componentType": 5121, "count": 120, "type": "VEC4"}, {"bufferView": 29, "componentType": 5126, "count": 120, "type": "VEC4"}, {"bufferView": 30, "componentType": 5123, "count": 528, "type": "SCALAR"}, {"bufferView": 31, "componentType": 5126, "count": 4075, "max": [0.448392391204834, 1.1241801977157593, 0.35398849844932556], "min": [-0.448392391204834, -6.556510889765832e-09, -0.15609751641750336], "type": "VEC3"}, {"bufferView": 32, "componentType": 5126, "count": 4075, "type": "VEC3"}, {"bufferView": 33, "componentType": 5126, "count": 4075, "type": "VEC2"}, {"bufferView": 34, "componentType": 5121, "count": 4075, "type": "VEC4"}, {"bufferView": 35, "componentType": 5126, "count": 4075, "type": "VEC4"}, {"bufferView": 36, "componentType": 5123, "count": 15660, "type": "SCALAR"}, {"bufferView": 37, "componentType": 5126, "count": 6129, "max": [0.5338580012321472, 1.6567301750183105, 0.27027204632759094], "min": [-0.5338580012321472, 0.891332745552063, -0.1846664398908615], "type": "VEC3"}, {"bufferView": 38, "componentType": 5126, "count": 6129, "type": "VEC3"}, {"bufferView": 39, "componentType": 5126, "count": 6129, "type": "VEC2"}, {"bufferView": 40, "componentType": 5121, "count": 6129, "type": "VEC4"}, {"bufferView": 41, "componentType": 5126, "count": 6129, "type": "VEC4"}, {"bufferView": 42, "componentType": 5123, "count": 25974, "type": "SCALAR"}], "bufferViews": [{"buffer": 0, "byteLength": 5220, "byteOffset": 0, "target": 34962}, {"buffer": 0, "byteLength": 5220, "byteOffset": 5220, "target": 34962}, {"buffer": 0, "byteLength": 3480, "byteOffset": 10440, "target": 34962}, {"buffer": 0, "byteLength": 1740, "byteOffset": 13920, "target": 34962}, {"buffer": 0, "byteLength": 6960, "byteOffset": 15660, "target": 34962}, {"buffer": 0, "byteLength": 4092, "byteOffset": 22620, "target": 34963}, {"buffer": 0, "byteLength": 832, "byteOffset": 26712}, {"buffer": 0, "byteLength": 48300, "byteOffset": 27544, "target": 34962}, {"buffer": 0, "byteLength": 48300, "byteOffset": 75844, "target": 34962}, {"buffer": 0, "byteLength": 32200, "byteOffset": 124144, "target": 34962}, {"buffer": 0, "byteLength": 16100, "byteOffset": 156344, "target": 34962}, {"buffer": 0, "byteLength": 64400, "byteOffset": 172444, "target": 34962}, {"buffer": 0, "byteLength": 38844, "byteOffset": 236844, "target": 34963}, {"buffer": 0, "byteLength": 936, "byteOffset": 275688, "target": 34962}, {"buffer": 0, "byteLength": 936, "byteOffset": 276624, "target": 34962}, {"buffer": 0, "byteLength": 624, "byteOffset": 277560, "target": 34962}, {"buffer": 0, "byteLength": 312, "byteOffset": 278184, "target": 34962}, {"buffer": 0, "byteLength": 1248, "byteOffset": 278496, "target": 34962}, {"buffer": 0, "byteLength": 576, "byteOffset": 279744, "target": 34963}, {"buffer": 0, "byteLength": 94944, "byteOffset": 280320, "target": 34962}, {"buffer": 0, "byteLength": 94944, "byteOffset": 375264, "target": 34962}, {"buffer": 0, "byteLength": 63296, "byteOffset": 470208, "target": 34962}, {"buffer": 0, "byteLength": 31648, "byteOffset": 533504, "target": 34962}, {"buffer": 0, "byteLength": 126592, "byteOffset": 565152, "target": 34962}, {"buffer": 0, "byteLength": 47628, "byteOffset": 691744, "target": 34963}, {"buffer": 0, "byteLength": 1440, "byteOffset": 739372, "target": 34962}, {"buffer": 0, "byteLength": 1440, "byteOffset": 740812, "target": 34962}, {"buffer": 0, "byteLength": 960, "byteOffset": 742252, "target": 34962}, {"buffer": 0, "byteLength": 480, "byteOffset": 743212, "target": 34962}, {"buffer": 0, "byteLength": 1920, "byteOffset": 743692, "target": 34962}, {"buffer": 0, "byteLength": 1056, "byteOffset": 745612, "target": 34963}, {"buffer": 0, "byteLength": 48900, "byteOffset": 746668, "target": 34962}, {"buffer": 0, "byteLength": 48900, "byteOffset": 795568, "target": 34962}, {"buffer": 0, "byteLength": 32600, "byteOffset": 844468, "target": 34962}, {"buffer": 0, "byteLength": 16300, "byteOffset": 877068, "target": 34962}, {"buffer": 0, "byteLength": 65200, "byteOffset": 893368, "target": 34962}, {"buffer": 0, "byteLength": 31320, "byteOffset": 958568, "target": 34963}, {"buffer": 0, "byteLength": 73548, "byteOffset": 989888, "target": 34962}, {"buffer": 0, "byteLength": 73548, "byteOffset": 1063436, "target": 34962}, {"buffer": 0, "byteLength": 49032, "byteOffset": 1136984, "target": 34962}, {"buffer": 0, "byteLength": 24516, "byteOffset": 1186016, "target": 34962}, {"buffer": 0, "byteLength": 98064, "byteOffset": 1210532, "target": 34962}, {"buffer": 0, "byteLength": 51948, "byteOffset": 1308596, "target": 34963}], "buffers": [{"byteLength": 1360544, "uri": "scene.bin"}], "images": [{"uri": "textures/mesh0.jpg"}, {"uri": "textures/mesh1.jpg"}, {"uri": "textures/mesh2.jpg"}, {"uri": "textures/mesh3.jpg"}, {"uri": "textures/mesh4.jpg"}, {"uri": "textures/mesh5.jpg"}, {"uri": "textures/mesh6.jpg"}], "textures": [{"source": 0}, {"source": 1}, {"source": 2}, {"source": 3}, {"source": 4}, {"source": 5}, {"source": 6}], "materials": [{"name": "Chest", "pbrMetallicRoughness": {"baseColorTexture": {"index": 0}, "metallicFactor": 0.1, "roughnessFactor": 0.7}, "doubleSided": true}, {"name": "Face", "pbrMetallicRoughness": {"baseColorTexture": {"index": 1}, "metallicFactor": 0.1, "roughnessFactor": 0.7}, "doubleSided": true}, {"name": "Hair_Band", "pbrMetallicRoughness": {"baseColorTexture": {"index": 2}, "metallicFactor": 0.1, "roughnessFactor": 0.7}, "doubleSided": true}, {"name": "Hairs", "pbrMetallicRoughness": {"baseColorTexture": {"index": 3}, "metallicFactor": 0.1, "roughnessFactor": 0.7}, "doubleSided": true}, {"name": "Legs", "pbrMetallicRoughness": {"baseColorTexture": {"index": 4}, "metallicFactor": 0.1, "roughnessFactor": 0.7}, "doubleSided": true}, {"name": "Lower", "pbrMetallicRoughness": {"baseColorTexture": {"index": 5}, "metallicFactor": 0.1, "roughnessFactor": 0.7}, "doubleSided": true}, {"name": "Upper", "pbrMetallicRoughness": {"baseColorTexture": {"index": 6}, "metallicFactor": 0.1, "roughnessFactor": 0.7}, "doubleSided": true}]}