{"asset":{"generator":"Khronos glTF Blender I/O v5.1.20","version":"2.0"},"scene":0,"scenes":[{"name":"Scene","nodes":[32]}],"nodes":[{"mesh":0,"name":"BilloXD Chest","skin":0},{"mesh":1,"name":"BilloXD Face","skin":0},{"mesh":2,"name":"BilloXD Hair Band","skin":0},{"mesh":3,"name":"BilloXD Hairs","skin":0},{"mesh":4,"name":"BilloXD Legs","skin":0},{"mesh":5,"name":"BilloXD Lower","skin":0},{"mesh":6,"name":"BilloXD Upper","skin":0},{"name":"Pelvis","translation":[0.0,0.95,0.02],"children":[8,24,26]},{"name":"Spine","translation":[0.0,0.1100000000000001,0.0],"children":[9]},{"name":"Spine2","translation":[0.0,0.11999999999999988,0.0],"children":[10]},{"name":"Chest","translation":[0.0,0.1200000000000001,0.009999999999999998],"children":[11,30,31]},{"name":"UpperChest","translation":[0.0,0.11999999999999988,0.0],"children":[12,14,19]},{"name":"Neck","translation":[0.0,0.10000000000000009,-0.009999999999999998],"children":[13]},{"name":"Head","translation":[0.0,0.10000000000000009,-0.01],"children":[28]},{"name":"Shoulder.L","translation":[-0.07,0.020000000000000018,0.0],"children":[15]},{"name":"UpperArm.L","translation":[-0.19,-0.1399999999999999,0.010000000000000002],"children":[16]},{"name":"Forearm.L","translation":[-0.15999999999999998,-0.19999999999999996,-0.09],"children":[17]},{"name":"Hand.L","translation":[-0.05499999999999999,-0.10000000000000009,-0.08],"children":[18]},{"name":"Fingers.L","translation":[-0.030000000000000027,-0.04500000000000004,-0.010000000000000009]},{"name":"Shoulder.R","translation":[0.07,0.020000000000000018,0.0],"children":[20]},{"name":"UpperArm.R","translation":[0.19,-0.1399999999999999,0.010000000000000002],"children":[21]},{"name":"Forearm.R","translation":[0.15999999999999998,-0.19999999999999996,-0.09],"children":[22]},{"name":"Hand.R","translation":[0.05499999999999999,-0.10000000000000009,-0.08],"children":[23]},{"name":"Fingers.R","translation":[0.030000000000000027,-0.04500000000000004,-0.010000000000000009]},{"name":"Thigh.L","translation":[-0.11,0.0,0.0],"children":[25]},{"name":"Shin.L","translation":[0.0,-0.3999999999999999,0.0]},{"name":"Thigh.R","translation":[0.11,0.0,0.0],"children":[27]},{"name":"Shin.R","translation":[0.0,-0.3999999999999999,0.0]},{"name":"HairMid","translation":[0.0,-0.17000000000000015,0.060000000000000005],"children":[29]},{"name":"HairTip","translation":[0.0,-0.19999999999999996,0.039999999999999994]},{"name":"WingTip.L","translation":[-0.44,-0.20999999999999996,-0.03]},{"name":"WingTip.R","translation":[0.44,-0.20999999999999996,-0.03]},{"name":"Armature","children":[0,1,2,3,4,5,6,7]}],"meshes":[{"name":"Mesh_0008.rip_mesh0000","primitives":[{"attributes":{"POSITION":1,"NORMAL":2,"TEXCOORD_0":3,"JOINTS_0":4,"WEIGHTS_0":5},"indices":6,"material":0}]},{"name":"Mesh_0010.rip_mesh0000.002","primitives":[{"attributes":{"POSITION":7,"NORMAL":8,"TEXCOORD_0":9,"JOINTS_0":10,"WEIGHTS_0":11},"indices":12,"material":1}]},{"name":"Mesh_0011.rip_mesh0000.001","primitives":[{"attributes":{"POSITION":13,"NORMAL":14,"TEXCOORD_0":15,"JOINTS_0":16,"WEIGHTS_0":17},"indices":18,"material":2}]},{"name":"Mesh_0014.rip_mesh0000","primitives":[{"attributes":{"POSITION":19,"NORMAL":20,"TEXCOORD_0":21,"JOINTS_0":22,"WEIGHTS_0":23},"indices":24,"material":3}]},{"name":"Mesh_0009.rip_mesh0000.001","primitives":[{"attributes":{"POSITION":25,"NORMAL":26,"TEXCOORD_0":27,"JOINTS_0":28,"WEIGHTS_0":29},"indices":30,"material":4}]},{"name":"Mesh_0012.rip_mesh0000.002","primitives":[{"attributes":{"POSITION":31,"NORMAL":32,"TEXCOORD_0":33,"JOINTS_0":34,"WEIGHTS_0":35},"indices":36,"material":5}]},{"name":"Mesh_0013.rip_mesh0000.001","primitives":[{"attributes":{"POSITION":37,"NORMAL":38,"TEXCOORD_0":39,"JOINTS_0":40,"WEIGHTS_0":41},"indices":42,"material":6}]}],"skins":[{"inverseBindMatrices":0,"joints":[7,8,9,10,11,12,13,14,15,16,17,18,19,20,21,22,23,24,25,26,27,28,29,30,31],"name":"Armature"}],"accessors":[{"bufferView":0,"componentType":5126,"count":25,"type":"MAT4"},{"bufferView":1,"componentType":5126,"count":435,"type":"VEC3","min":[-0.4668515622615814,1.0725616216659546,-0.12085448950529099],"max":[0.4668515622615814,1.5342824459075928,0.11468078196048737]},{"bufferView":2,"componentType":5126,"count":435,"type":"VEC3"},{"bufferView":3,"componentType":5126,"count":435,"type":"VEC2"},{"bufferView":4,"componentType":5121,"count":435,"type":"VEC4"},{"bufferView":5,"componentType":5126,"count":435,"type":"VEC4"},{"bufferView":6,"componentType":5123,"count":2046,"type":"SCALAR"},{"bufferView":7,"componentType":5126,"count":4025,"type":"VEC3","min":[-0.08857343345880508,1.4879112243652344,-0.11998167634010315],"max":[0.08829575031995773,1.7955654859542847,0.09070368856191635]},{"bufferView":8,"componentType":5126,"count":4025,"type":"VEC3"},{"bufferView":9,"componentType":5126,"count":4025,"type":"VEC2"},{"bufferView":10,"componentType":5121,"count":4025,"type":"VEC4"},{"bufferView":11,"componentType":5126,"count":4025,"type":"VEC4"},{"bufferView":12,"componentType":5123,"count":19422,"type":"SCALAR"},{"bufferView":13,"componentType":5126,"count":78,"type":"VEC3","min":[-0.023244868963956833,1.8086049556732178,0.0035753899719566107],"max":[0.02708384022116661,1.8776726722717285,0.0647362470626831]},{"bufferView":14,"componentType":5126,"count":78,"type":"VEC3"},{"bufferView":15,"componentType":5126,"count":78,"type":"VEC2"},{"bufferView":16,"componentType":5121,"count":78,"type":"VEC4"},{"bufferView":17,"componentType":5126,"count":78,"type":"VEC4"},{"bufferView":18,"componentType":5123,"count":288,"type":"SCALAR"},{"bufferView":19,"componentType":5126,"count":7912,"type":"VEC3","min":[-0.10509273409843445,1.1981884241104126,-0.10315057635307312],"max":[0.11794169992208481,1.9301596879959106,0.2801651954650879]},{"bufferView":20,"componentType":5126,"count":7912,"type":"VEC3"},{"bufferView":21,"componentType":5126,"count":7912,"type":"VEC2"},{"bufferView":22,"componentType":5121,"count":7912,"type":"VEC4"},{"bufferView":23,"componentType":5126,"count":7912,"type":"VEC4"},{"bufferView":24,"componentType":5123,"count":23814,"type":"SCALAR"},{"bufferView":25,"componentType":5126,"count":120,"type":"VEC3","min":[-0.18062151968479156,0.5309414863586426,-0.0920133963227272],"max":[0.18062151968479156,0.9162783622741699,0.08939284831285477]},{"bufferView":26,"componentType":5126,"count":120,"type":"VEC3"},{"bufferView":27,"componentType":5126,"count":120,"type":"VEC2"},{"bufferView":28,"componentType":5121,"count":120,"type":"VEC4"},{"bufferView":29,"componentType":5126,"count":120,"type":"VEC4"},{"bufferView":30,"componentType":5123,"count":528,"type":"SCALAR"},{"bufferView":31,"componentType":5126,"count":4075,"type":"VEC3","min":[-0.448392391204834,-6.556510889765832e-09,-0.15609751641750336],"max":[0.448392391204834,1.1241801977157593,0.35398849844932556]},{"bufferView":32,"componentType":5126,"count":4075,"type":"VEC3"},{"bufferView":33,"componentType":5126,"count":4075,"type":"VEC2"},{"bufferView":34,"componentType":5121,"count":4075,"type":"VEC4"},{"bufferView":35,"componentType":5126,"count":4075,"type":"VEC4"},{"bufferView":36,"componentType":5123,"count":15660,"type":"SCALAR"},{"bufferView":37,"componentType":5126,"count":6129,"type":"VEC3","min":[-0.5338580012321472,0.891332745552063,-0.1846664398908615],"max":[0.5338580012321472,1.6567301750183105,0.27027204632759094]},{"bufferView":38,"componentType":5126,"count":6129,"type":"VEC3"},{"bufferView":39,"componentType":5126,"count":6129,"type":"VEC2"},{"bufferView":40,"componentType":5121,"count":6129,"type":"VEC4"},{"bufferView":41,"componentType":5126,"count":6129,"type":"VEC4"},{"bufferView":42,"componentType":5123,"count":25974,"type":"SCALAR"}],"bufferViews":[{"buffer":0,"byteLength":1600,"byteOffset":0},{"buffer":0,"byteLength":5220,"byteOffset":1600,"target":34962},{"buffer":0,"byteLength":5220,"byteOffset":6820,"target":34962},{"buffer":0,"byteLength":3480,"byteOffset":12040,"target":34962},{"buffer":0,"byteLength":1740,"byteOffset":15520,"target":34962},{"buffer":0,"byteLength":6960,"byteOffset":17260,"target":34962},{"buffer":0,"byteLength":4092,"byteOffset":24220,"target":34963},{"buffer":0,"byteLength":48300,"byteOffset":28312,"target":34962},{"buffer":0,"byteLength":48300,"byteOffset":76612,"target":34962},{"buffer":0,"byteLength":32200,"byteOffset":124912,"target":34962},{"buffer":0,"byteLength":16100,"byteOffset":157112,"target":34962},{"buffer":0,"byteLength":64400,"byteOffset":173212,"target":34962},{"buffer":0,"byteLength":38844,"byteOffset":237612,"target":34963},{"buffer":0,"byteLength":936,"byteOffset":276456,"target":34962},{"buffer":0,"byteLength":936,"byteOffset":277392,"target":34962},{"buffer":0,"byteLength":624,"byteOffset":278328,"target":34962},{"buffer":0,"byteLength":312,"byteOffset":278952,"target":34962},{"buffer":0,"byteLength":1248,"byteOffset":279264,"target":34962},{"buffer":0,"byteLength":576,"byteOffset":280512,"target":34963},{"buffer":0,"byteLength":94944,"byteOffset":281088,"target":34962},{"buffer":0,"byteLength":94944,"byteOffset":376032,"target":34962},{"buffer":0,"byteLength":63296,"byteOffset":470976,"target":34962},{"buffer":0,"byteLength":31648,"byteOffset":534272,"target":34962},{"buffer":0,"byteLength":126592,"byteOffset":565920,"target":34962},{"buffer":0,"byteLength":47628,"byteOffset":692512,"target":34963},{"buffer":0,"byteLength":1440,"byteOffset":740140,"target":34962},{"buffer":0,"byteLength":1440,"byteOffset":741580,"target":34962},{"buffer":0,"byteLength":960,"byteOffset":743020,"target":34962},{"buffer":0,"byteLength":480,"byteOffset":743980,"target":34962},{"buffer":0,"byteLength":1920,"byteOffset":744460,"target":34962},{"buffer":0,"byteLength":1056,"byteOffset":746380,"target":34963},{"buffer":0,"byteLength":48900,"byteOffset":747436,"target":34962},{"buffer":0,"byteLength":48900,"byteOffset":796336,"target":34962},{"buffer":0,"byteLength":32600,"byteOffset":845236,"target":34962},{"buffer":0,"byteLength":16300,"byteOffset":877836,"target":34962},{"buffer":0,"byteLength":65200,"byteOffset":894136,"target":34962},{"buffer":0,"byteLength":31320,"byteOffset":959336,"target":34963},{"buffer":0,"byteLength":73548,"byteOffset":990656,"target":34962},{"buffer":0,"byteLength":73548,"byteOffset":1064204,"target":34962},{"buffer":0,"byteLength":49032,"byteOffset":1137752,"target":34962},{"buffer":0,"byteLength":24516,"byteOffset":1186784,"target":34962},{"buffer":0,"byteLength":98064,"byteOffset":1211300,"target":34962},{"buffer":0,"byteLength":51948,"byteOffset":1309364,"target":34963}],"buffers":[{"byteLength":1361312,"uri":"scene.bin"}],"images":[{"uri":"textures/mesh0.jpg"},{"uri":"textures/mesh1.jpg"},{"uri":"textures/mesh2.jpg"},{"uri":"textures/mesh3.jpg"},{"uri":"textures/mesh4.jpg"},{"uri":"textures/mesh5.jpg"},{"uri":"textures/mesh6.jpg"}],"textures":[{"source":0},{"source":1},{"source":2},{"source":3},{"source":4},{"source":5},{"source":6}],"materials":[{"name":"Chest","pbrMetallicRoughness":{"baseColorTexture":{"index":0},"metallicFactor":0.1,"roughnessFactor":0.7},"doubleSided":true},{"name":"Face","pbrMetallicRoughness":{"baseColorTexture":{"index":1},"metallicFactor":0.1,"roughnessFactor":0.7},"doubleSided":true},{"name":"Hair_Band","pbrMetallicRoughness":{"baseColorTexture":{"index":2},"metallicFactor":0.1,"roughnessFactor":0.7},"doubleSided":true},{"name":"Hairs","pbrMetallicRoughness":{"baseColorTexture":{"index":3},"metallicFactor":0.1,"roughnessFactor":0.7},"doubleSided":true},{"name":"Legs","pbrMetallicRoughness":{"baseColorTexture":{"index":4},"metallicFactor":0.1,"roughnessFactor":0.7},"doubleSided":true},{"name":"Lower","pbrMetallicRoughness":{"baseColorTexture":{"index":5},"metallicFactor":0.1,"roughnessFactor":0.7},"doubleSided":true},{"name":"Upper","pbrMetallicRoughness":{"baseColorTexture":{"index":6},"metallicFactor":0.1,"roughnessFactor":0.7},"doubleSided":true}]}